<svg xmlns="http://www.w3.org/2000/svg" width="96" height="96" viewBox="0 0 96 96" fill="none">
  <rect x="8" y="8" width="80" height="80" rx="22" fill="#FFFFFF" stroke="#E2E8F0"/>
  <g fill="#FDE68A" stroke="#A16207" stroke-width="2.5">
    <path d="M36 58c0-8 6-14 14-14 7 0 12 5 12 12 0 9-7 16-16 16-5 0-10-4-10-10z"/>
    <path d="M28 46c0-7 5-12 12-12 6 0 10 4 10 10 0 7-6 13-13 13-5 0-9-3-9-11z" opacity="0.95"/>
    <path d="M54 38c0-7 5-12 12-12 6 0 10 4 10 10 0 7-6 13-13 13-5 0-9-3-9-11z" opacity="0.95"/>
  </g>
  <path d="M22 64c14-12 28-20 52-28" stroke="#16A34A" stroke-width="6" stroke-linecap="round" opacity="0.85"/>
</svg>

