<svg xmlns="http://www.w3.org/2000/svg" width="96" height="96" viewBox="0 0 96 96" fill="none">
  <rect x="8" y="8" width="80" height="80" rx="22" fill="#FFFFFF" stroke="#E2E8F0"/>
  <path d="M48 70c10 0 18-7 18-16 0-6-4-11-10-14 2-2 4-6 4-9 0-7-6-13-13-13-5 0-9 3-11 7-2-1-4-1-6-1-7 0-13 6-13 13 0 6 4 11 10 13-3 2-5 6-5 10 0 9 8 16 18 16z" fill="#F8FAFC" stroke="#CBD5E1" stroke-width="3"/>
  <path d="M48 70v8" stroke="#16A34A" stroke-width="6" stroke-linecap="round"/>
  <path d="M48 72c-10-8-16-14-18-22" stroke="#22C55E" stroke-width="6" stroke-linecap="round"/>
  <path d="M48 72c10-8 16-14 18-22" stroke="#16A34A" stroke-width="6" stroke-linecap="round"/>
</svg>

