<svg xmlns="http://www.w3.org/2000/svg" width="1200" height="700" viewBox="0 0 1200 700" fill="none">
  <defs>
    <linearGradient id="bg" x1="0" y1="0" x2="1" y2="1">
      <stop offset="0" stop-color="#ECFEFF"/>
      <stop offset="1" stop-color="#FFFFFF"/>
    </linearGradient>
    <linearGradient id="g" x1="0" y1="0" x2="1" y2="1">
      <stop offset="0" stop-color="#16A34A"/>
      <stop offset="1" stop-color="#4ADE80"/>
    </linearGradient>
    <filter id="s" x="-20%" y="-20%" width="140%" height="140%">
      <feDropShadow dx="0" dy="16" stdDeviation="18" flood-color="#0F172A" flood-opacity="0.12"/>
    </filter>
  </defs>

  <rect x="0" y="0" width="1200" height="700" rx="28" fill="url(#bg)"/>

  <g filter="url(#s)">
    <rect x="140" y="150" width="520" height="380" rx="22" fill="#FFFFFF"/>
    <rect x="180" y="210" width="260" height="16" rx="8" fill="#E2E8F0"/>
    <rect x="180" y="250" width="340" height="16" rx="8" fill="#E2E8F0"/>
    <rect x="180" y="320" width="440" height="56" rx="16" fill="#F1F5F9"/>
    <rect x="180" y="400" width="440" height="56" rx="16" fill="#F1F5F9"/>
    <rect x="180" y="480" width="220" height="46" rx="23" fill="#DCFCE7"/>
    <rect x="410" y="480" width="210" height="46" rx="23" fill="#BBF7D0"/>
  </g>

  <g filter="url(#s)">
    <circle cx="860" cy="340" r="150" fill="#FFFFFF"/>
    <path d="M860 450 C920 420 965 355 965 290 C965 245 935 210 900 192 C880 182 870 178 860 175 C850 178 840 182 820 192 C785 210 755 245 755 290 C755 355 800 420 860 450 Z" fill="url(#g)"/>
    <path d="M860 338 m-44 0 a44 44 0 1 0 88 0 a44 44 0 1 0 -88 0" fill="#052E16" opacity="0.15"/>
    <path d="M840 338 L856 356 L892 316" stroke="#FFFFFF" stroke-width="10" stroke-linecap="round" stroke-linejoin="round"/>
  </g>

  <g opacity="0.95">
    <rect x="760" y="520" width="300" height="46" rx="23" fill="#FFFFFF" stroke="#E2E8F0"/>
    <text x="790" y="549" font-family="Inter, Arial" font-size="16" fill="#0F172A">Secure Sign in / Sign up</text>
  </g>
</svg>

